<?xml version="1.0" encoding="UTF-8" standalone="no"?>
<!-- Created with Inkscape (http://www.inkscape.org/) -->

<svg
   xmlns:dc="http://purl.org/dc/elements/1.1/"
   xmlns:cc="http://creativecommons.org/ns#"
   xmlns:rdf="http://www.w3.org/1999/02/22-rdf-syntax-ns#"
   xmlns:svg="http://www.w3.org/2000/svg"
   xmlns="http://www.w3.org/2000/svg"
   xmlns:sodipodi="http://sodipodi.sourceforge.net/DTD/sodipodi-0.dtd"
   xmlns:inkscape="http://www.inkscape.org/namespaces/inkscape"
   id="svg2"
   version="1.1"
   inkscape:version="0.48.4 r9939"
   width="400"
   height="400"
   sodipodi:docname="map_SRNamen.svg">
  <sodipodi:namedview
     pagecolor="#ffffff"
     bordercolor="#666666"
     borderopacity="1"
     objecttolerance="10"
     gridtolerance="10"
     guidetolerance="10"
     inkscape:pageopacity="0"
     inkscape:pageshadow="2"
     inkscape:window-width="1859"
     inkscape:window-height="1048"
     id="namedview4"
     showgrid="false"
     inkscape:zoom="0.59"
     inkscape:cx="348.52951"
     inkscape:cy="147.49047"
     inkscape:window-x="-8"
     inkscape:window-y="-3"
     inkscape:window-maximized="1"
     inkscape:current-layer="svg2" />
  <metadata
     id="metadata8">
    <rdf:RDF>
      <cc:Work
         rdf:about="">
        <dc:format>image/svg+xml</dc:format>
        <dc:type
           rdf:resource="http://purl.org/dc/dcmitype/StillImage" />
        <dc:title></dc:title>
      </cc:Work>
    </rdf:RDF>
  </metadata>
  <defs
     id="defs6">
    <filter
       color-interpolation-filters="sRGB"
       inkscape:menu-tooltip="Increase or decrease lightness and contrast"
       inkscape:menu="Color"
       inkscape:label="Lightness-Contrast"
       height="1"
       width="1"
       y="0"
       x="0"
       id="filter2999">
      <feFlood
         flood-color="rgb(128,128,128)"
         flood-opacity="0"
         result="result1"
         id="feFlood3001" />
      <feBlend
         result="result2"
         mode="normal"
         in2="SourceGraphic"
         id="feBlend3003" />
      <feComposite
         result="result3"
         operator="arithmetic"
         k2="1"
         in2="SourceGraphic"
         id="feComposite3005" />
      <feComposite
         operator="in"
         in2="SourceGraphic"
         id="feComposite3007" />
    </filter>
  </defs>
  <path
     style="fill:#99cc00"
     d="m 178.48165,370.25 c -0.95806,-5.8996 -2.21152,-8.29089 -3.98848,-7.60901 -0.86221,0.33087 -2.40779,-0.15874 -3.43462,-1.08801 -1.55884,-1.41072 -2.20063,-1.4812 -3.88866,-0.427 -2.41536,1.50841 -7.16989,-0.1662 -7.16989,-2.52533 0,-0.79323 -1.8,-3.26032 -4,-5.48241 -2.2,-2.2221 -4,-4.50774 -4,-5.07921 C 152,347.46756 151.62203,347 151.16006,347 c -0.46197,0 -1.45294,-1.8574 -2.20216,-4.12755 C 147.58253,338.70502 143.34314,333 141.62171,333 c -0.51311,0 -2.44847,1.15596 -4.3008,2.5688 -3.96239,3.02226 -6.82091,2.86787 -6.82091,-0.3684 0,-1.24429 -0.62015,-2.6481 -1.37812,-3.11957 -0.75796,-0.47147 -1.0689,-1.35753 -0.69098,-1.96903 1.33295,-2.15675 -0.40014,-2.95908 -4.15334,-1.92277 -2.64759,0.73104 -3.81209,0.70738 -4.07548,-0.0828 -0.45975,-1.37926 -3.86772,-1.45627 -4.70208,-0.10625 -1.26797,2.05162 -3.5093,0.87914 -5.72014,-2.9923 -1.28853,-2.25636 -3.0408,-3.99564 -4.02986,-4 -1.08077,-0.005 -1.75,-0.77254 -1.75,-2.0077 0,-1.34848 -0.66667,-2 -2.04651,-2 -1.25037,0 -2.709209,-1.19826 -3.75,-3.08016 -1.651379,-2.98594 -1.866438,-3.06188 -7.030211,-2.48225 -5.23354,0.58746 -18.179924,3.83045 -20.148455,5.04707 -0.551485,0.34083 -4.945178,-0.34637 -9.763762,-1.52713 L 52.5,312.8107 l 0.343107,-5.41496 c 0.257024,-4.0564 -0.153945,-6.2574 -1.638043,-8.77276 -1.303387,-2.20907 -2.104978,-5.71237 -2.343107,-10.24039 -0.3116,-5.92506 -0.757131,-7.29996 -3.2024,-9.88259 -1.562243,-1.65 -3.480782,-4.4625 -4.26342,-6.25 -0.782637,-1.7875 -1.754438,-3.25049 -2.159557,-3.25109 -0.405119,-6e-4 -0.806266,-2.29778 -0.891439,-5.10486 -0.08517,-2.80707 -0.647672,-5.59658 -1.25,-6.19891 -1.649082,-1.64908 -1.317817,-4.42 0.703965,-5.88844 C 40.419342,249.90361 39.678,241 36.899306,241 35.854688,241 35,240.325 35,239.5 c 0,-0.825 0.45,-1.5 1,-1.5 0.55,0 1,-2.41875 1,-5.375 0,-8.96108 0.861832,-11.625 3.760924,-11.625 2.413047,0 2.48605,-0.18147 1.872813,-4.65553 -0.350961,-2.56054 -0.140485,-7.51311 0.467725,-11.00571 1.255334,-7.20866 3.951972,-10.00789 10.639037,-11.04382 4.395027,-0.68086 12.511907,-4.54735 15.20975,-7.24519 1.446632,-1.44663 1.757962,-2.80631 1.34594,-5.87816 -0.486546,-3.62748 -0.271193,-4.13531 2.333903,-5.5037 1.578449,-0.82911 4.894908,-3.59015 7.369908,-6.13563 2.475,-2.54549 6.525,-5.79296 9,-7.21661 2.475,-1.42364 5.643833,-3.80228 7.04185,-5.28587 1.398018,-1.48358 3.326091,-3.13631 4.28461,-3.67272 1.69831,-0.95043 7.00822,-14.24448 8.57043,-21.45718 1.48696,-6.86535 3.19966,-8.19615 11.0706,-8.60212 3.87295,-0.19976 7.91537,0.10437 8.98318,0.67584 1.64255,0.87907 2.71955,0.26094 6.99539,-4.0149 4.81158,-4.81157 5.05394,-5.31034 5.05394,-10.40056 0,-4.51991 0.4486,-5.82686 2.90121,-8.45238 C 145.49688,99.39759 147.69773,98 148.79201,98 c 1.09427,0 3.9507,-0.87802 6.34763,-1.951156 2.75617,-1.233974 4.70766,-1.601542 5.3092,-1 C 160.97198,95.57198 162.435,96 163.7,96 c 2.88079,0 2.93013,1.817688 0.17603,6.48554 -1.16818,1.97992 -1.95568,3.71684 -1.75,3.85982 3.5746,2.48485 6.0611,3.52006 7.3068,3.04204 0.87577,-0.33606 2.825,0.49321 4.52845,1.92656 3.81113,3.20686 7.68948,4.03901 14.9156,3.20033 5.05051,-0.58617 5.75647,-0.93476 5.6942,-2.81165 -0.0829,-2.49898 5.71298,-5.82223 8.92892,-5.11966 2.94097,0.64249 4.2961,-0.67359 4.66865,-4.53411 0.27748,-2.875371 0.82755,-3.561259 3.38321,-4.218507 2.76162,-0.710217 3.01438,-1.105795 2.65788,-4.159544 l -0.39398,-3.374686 8.84212,-2.744926 c 12.74069,-3.955191 12.99486,-4.089309 13.67274,-7.214955 1.1757,-5.42106 2.00192,-5.903025 6.84114,-3.990685 4.21559,1.665898 4.37218,1.656734 6.01651,-0.352123 1.25157,-1.529028 2.35334,-1.895612 4.25944,-1.417211 1.41415,0.354929 2.8413,1.082374 3.17143,1.616544 0.33171,0.536714 1.78147,-0.133657 3.24055,-1.498435 1.45217,-1.358309 3.65281,-2.775533 4.89031,-3.149385 2.06011,-0.622366 2.25,-0.356375 2.25,3.151755 0,3.47528 0.34863,3.980816 3.75,5.437707 8.06427,3.454128 8.85026,3.287436 11.74599,-2.491071 0.77018,-1.536899 1.82229,-2.054981 3.71843,-1.831036 2.46245,0.290829 2.68938,-0.01871 3.29902,-4.5 0.99577,-7.319582 1.09632,-7.496169 7.01059,-12.312312 3.03933,-2.475 6.69625,-6.476495 8.1265,-8.892211 2.28261,-3.855362 2.53799,-5.170487 2.08934,-10.759655 -0.48697,-6.066659 -0.39853,-6.395701 1.87227,-6.965636 1.31086,-0.329005 3.08438,-0.329194 3.94116,-4.2e-4 1.09523,0.420282 1.86724,-0.28999 2.60006,-2.392153 C 315.98779,27.596277 316.77443,27 319.09783,27 321.9401,27 322,27.110728 322,32.365141 322,38.148382 324.64339,43 327.79437,43 330.27963,43 342.8957,39.118801 348,36.783955 c 9.63156,-4.405741 12.89147,-3.885595 15.75032,2.513098 2.52762,5.65734 0.51182,13.036433 -5.25032,19.219508 -4.70919,5.0532 -10.44793,7.000642 -18,6.108291 -3.03009,-0.358034 -8.48624,0.07731 -13.84871,1.104989 -7.79798,1.494425 -9.31196,2.145358 -12.75,5.481862 C 311.432,73.608065 310,75.908405 310,77.478652 c 0,5.362644 4.90686,14.333378 11.7136,21.414827 5.35026,5.566181 6.57879,8.815531 6.02409,15.933101 -0.42332,5.4317 -1.27468,7.97591 -4.57551,13.67342 -2.23048,3.85 -5.90096,10.375 -8.15662,14.5 -2.25566,4.125 -5.18353,9.29286 -6.5064,11.48413 l -2.4052,3.98413 4.70302,1.8943 c 2.58666,1.04186 6.05302,2.00646 7.70302,2.14354 4.43445,0.36842 11.5,3.50336 11.5,5.10248 0,0.76528 0.63,1.39142 1.4,1.39142 2.51701,0 1.61447,6.91959 -1.75,13.41688 -2.92254,5.64387 -3.17417,6.93485 -3.48479,17.8785 -0.21008,7.40178 0.0638,12.27563 0.73528,13.08472 0.76059,0.91645 0.7499,3.76951 -0.0369,9.86504 -1.12157,8.68842 -1.56441,9.57857 -8.37725,16.83875 -0.81746,0.87114 -1.48629,2.69498 -1.48629,4.053 0,3.30886 5.64521,10.86311 8.1179,10.86311 2.49588,0 3.31786,2.19273 2.1431,5.71701 -0.58444,1.75332 -1.63681,2.78299 -2.84433,2.78299 -1.09094,0 -2.509,1.18475 -3.29157,2.75 -1.6607,3.32163 -4.33293,3.53032 -8.97399,0.70082 -1.84188,-1.12293 -5.44188,-2.74318 -8,-3.60054 -2.55811,-0.85737 -5.36154,-2.18692 -6.22985,-2.95456 -2.05182,-1.81395 -2.92126,-1.76535 -2.92126,0.1633 0,0.88921 0.47766,1.2638 1.1118,0.87188 1.47371,-0.9108 2.85387,1.40435 2.87289,4.8191 0.008,1.5125 0.42956,2.75 0.93585,2.75 1.8829,0 2.25125,5.80818 0.53452,8.42824 -1.10854,1.69184 -1.44886,3.46034 -1.00568,5.2261 1.12135,4.46782 -2.33282,13.90848 -6.73025,18.39452 -4.17072,4.25478 -7.03749,4.98833 -8.60217,2.20114 -0.91542,-1.63065 -1.17456,-1.63945 -3.79969,-0.12897 -1.5495,0.89157 -4.61727,2.17226 -6.81727,2.84597 -9.05019,2.77147 -9.6688,3.23709 -9.01167,6.783 0.52456,2.83053 0.32983,3.25 -1.50876,3.25 -1.16108,0 -3.01023,-0.48123 -4.10923,-1.06939 -1.24148,-0.66442 -2.44735,-0.71912 -3.18426,-0.14444 -2.79298,2.17811 -6.12309,2.15191 -8.48474,-0.0668 l -2.35246,-2.21002 -2.94305,3.4953 c -1.61868,1.92242 -3.22367,4.77148 -3.56663,6.33125 -0.34297,1.55977 -1.23459,3.07041 -1.98139,3.35699 -0.7468,0.28657 -1.3591,1.03539 -1.36069,1.66405 -0.002,0.62865 -1.3426,2.04064 -2.98005,3.13775 -3.57497,2.39526 -5.36455,6.27261 -4.4947,9.73836 0.52943,2.10941 0.14699,2.78536 -2.25338,3.98283 -1.59007,0.79323 -5.73574,1.54489 -9.2126,1.67035 -3.58663,0.12943 -8.10292,1.03951 -10.43898,2.10357 -2.26458,1.0315 -6.00552,2.48906 -8.31322,3.23904 -2.30769,0.74998 -5.10055,2.5138 -6.20634,3.91959 -2.94365,3.74223 -6.30475,12.89103 -5.668,15.42805 0.42077,1.67647 0.0215,2.33712 -1.68944,2.79569 -3.99396,1.07045 -4.6402,0.68677 -5.25876,-3.12222 z"
     id="path3815"
     inkscape:connector-curvature="0"
     sodipodi:nodetypes="ccsssssssssssssssscsssssscsssssssssssssssssssssssssssssssssssssssssssscsssssssssssssssssssssssssssssssssscssssssssssssssssssscsssssssssssscssccssssssssscc" />
  <flowRoot
     xml:space="preserve"
     id="flowRoot2987"
     style="font-size:40px;font-style:normal;font-variant:normal;font-weight:normal;font-stretch:normal;line-height:125%;letter-spacing:0px;word-spacing:0px;fill:#ffffff;fill-opacity:1;stroke:none;font-family:MgOpen Moderna;-inkscape-font-specification:MgOpen Moderna"
     transform="translate(166.87463,130.61498)"><flowRegion
       id="flowRegion2989"><rect
         id="rect2991"
         width="673.72882"
         height="316.94916"
         x="-157.62712"
         y="40.677967"
         style="fill:#ffffff" /></flowRegion><flowPara
       id="flowPara2993"
       style="font-size:160px;font-style:normal;font-variant:normal;font-weight:normal;font-stretch:normal;fill:#ffffff;font-family:Nimbus Sans L;-inkscape-font-specification:Nimbus Sans L">Steyr</flowPara></flowRoot></svg>
