<?xml version="1.0" encoding="UTF-8" standalone="no"?>
<!-- Created with Inkscape (http://www.inkscape.org/) -->

<svg
   xmlns:dc="http://purl.org/dc/elements/1.1/"
   xmlns:cc="http://creativecommons.org/ns#"
   xmlns:rdf="http://www.w3.org/1999/02/22-rdf-syntax-ns#"
   xmlns:svg="http://www.w3.org/2000/svg"
   xmlns="http://www.w3.org/2000/svg"
   xmlns:sodipodi="http://sodipodi.sourceforge.net/DTD/sodipodi-0.dtd"
   xmlns:inkscape="http://www.inkscape.org/namespaces/inkscape"
   id="svg2"
   version="1.1"
   inkscape:version="0.48.4 r9939"
   width="400"
   height="400"
   sodipodi:docname="stat_bez.svg">
  <sodipodi:namedview
     pagecolor="#ffffff"
     bordercolor="#666666"
     borderopacity="1"
     objecttolerance="10"
     gridtolerance="10"
     guidetolerance="10"
     inkscape:pageopacity="0"
     inkscape:pageshadow="2"
     inkscape:window-width="1859"
     inkscape:window-height="1048"
     id="namedview4"
     showgrid="false"
     inkscape:zoom="1.668772"
     inkscape:cx="69.577708"
     inkscape:cy="212.45911"
     inkscape:window-x="-8"
     inkscape:window-y="-3"
     inkscape:window-maximized="1"
     inkscape:current-layer="svg2" />
  <metadata
     id="metadata8">
    <rdf:RDF>
      <cc:Work
         rdf:about="">
        <dc:format>image/svg+xml</dc:format>
        <dc:type
           rdf:resource="http://purl.org/dc/dcmitype/StillImage" />
        <dc:title />
      </cc:Work>
    </rdf:RDF>
  </metadata>
  <defs
     id="defs6">
    <filter
       color-interpolation-filters="sRGB"
       inkscape:menu-tooltip="Increase or decrease lightness and contrast"
       inkscape:menu="Color"
       inkscape:label="Lightness-Contrast"
       height="1"
       width="1"
       y="0"
       x="0"
       id="filter2999">
      <feFlood
         flood-color="rgb(128,128,128)"
         flood-opacity="0"
         result="result1"
         id="feFlood3001" />
      <feBlend
         result="result2"
         mode="normal"
         in2="SourceGraphic"
         id="feBlend3003" />
      <feComposite
         result="result3"
         operator="arithmetic"
         k2="1"
         in2="SourceGraphic"
         id="feComposite3005" />
      <feComposite
         operator="in"
         in2="SourceGraphic"
         id="feComposite3007" />
    </filter>
  </defs>
  <path
     style="fill:#000000"
     d="m 178.48165,370.25 c -0.95806,-5.8996 -2.21152,-8.29089 -3.98848,-7.60901 -0.86221,0.33087 -2.40779,-0.15874 -3.43462,-1.08801 -1.55884,-1.41072 -2.20063,-1.4812 -3.88866,-0.427 -2.41536,1.50841 -7.16989,-0.1662 -7.16989,-2.52533 0,-0.79323 -1.8,-3.26032 -4,-5.48241 -2.2,-2.2221 -4,-4.50774 -4,-5.07921 C 152,347.46756 151.62203,347 151.16006,347 c -0.46197,0 -1.45294,-1.8574 -2.20216,-4.12755 C 147.58253,338.70502 143.34314,333 141.62171,333 c -0.51311,0 -2.44847,1.15596 -4.3008,2.5688 -3.96239,3.02226 -6.82091,2.86787 -6.82091,-0.3684 0,-1.24429 -0.62015,-2.6481 -1.37812,-3.11957 -0.75796,-0.47147 -1.0689,-1.35753 -0.69098,-1.96903 1.33295,-2.15675 -0.40014,-2.95908 -4.15334,-1.92277 -2.64759,0.73104 -3.81209,0.70738 -4.07548,-0.0828 -0.45975,-1.37926 -3.86772,-1.45627 -4.70208,-0.10625 -1.26797,2.05162 -3.5093,0.87914 -5.72014,-2.9923 -1.28853,-2.25636 -3.0408,-3.99564 -4.02986,-4 -1.08077,-0.005 -1.75,-0.77254 -1.75,-2.0077 0,-1.34848 -0.66667,-2 -2.04651,-2 -1.25037,0 -2.709209,-1.19826 -3.75,-3.08016 -1.651379,-2.98594 -1.866438,-3.06188 -7.030211,-2.48225 -5.23354,0.58746 -18.179924,3.83045 -20.148455,5.04707 -0.551485,0.34083 -4.945178,-0.34637 -9.763762,-1.52713 L 52.5,312.8107 l 0.343107,-5.41496 c 0.257024,-4.0564 -0.153945,-6.2574 -1.638043,-8.77276 -1.303387,-2.20907 -2.104978,-5.71237 -2.343107,-10.24039 -0.3116,-5.92506 -0.757131,-7.29996 -3.2024,-9.88259 -1.562243,-1.65 -3.480782,-4.4625 -4.26342,-6.25 -0.782637,-1.7875 -1.754438,-3.25049 -2.159557,-3.25109 -0.405119,-6e-4 -0.806266,-2.29778 -0.891439,-5.10486 -0.08517,-2.80707 -0.647672,-5.59658 -1.25,-6.19891 -1.649082,-1.64908 -1.317817,-4.42 0.703965,-5.88844 C 40.419342,249.90361 39.678,241 36.899306,241 35.854688,241 35,240.325 35,239.5 c 0,-0.825 0.45,-1.5 1,-1.5 0.55,0 1,-2.41875 1,-5.375 0,-8.96108 0.861832,-11.625 3.760924,-11.625 2.413047,0 2.48605,-0.18147 1.872813,-4.65553 -0.350961,-2.56054 -0.140485,-7.51311 0.467725,-11.00571 1.255334,-7.20866 3.951972,-10.00789 10.639037,-11.04382 4.395027,-0.68086 12.511907,-4.54735 15.20975,-7.24519 1.446632,-1.44663 1.757962,-2.80631 1.34594,-5.87816 -0.486546,-3.62748 -0.271193,-4.13531 2.333903,-5.5037 1.578449,-0.82911 4.894908,-3.59015 7.369908,-6.13563 2.475,-2.54549 6.525,-5.79296 9,-7.21661 2.475,-1.42364 5.643833,-3.80228 7.04185,-5.28587 1.398018,-1.48358 3.326091,-3.13631 4.28461,-3.67272 1.69831,-0.95043 7.00822,-14.24448 8.57043,-21.45718 1.48696,-6.86535 3.19966,-8.19615 11.0706,-8.60212 3.87295,-0.19976 7.91537,0.10437 8.98318,0.67584 1.64255,0.87907 2.71955,0.26094 6.99539,-4.0149 4.81158,-4.81157 5.05394,-5.31034 5.05394,-10.40056 0,-4.51991 0.4486,-5.82686 2.90121,-8.45238 C 145.49688,99.39759 147.69773,98 148.79201,98 c 1.09427,0 3.9507,-0.87802 6.34763,-1.951156 2.75617,-1.233974 4.70766,-1.601542 5.3092,-1 C 160.97198,95.57198 162.435,96 163.7,96 c 2.88079,0 2.93013,1.817688 0.17603,6.48554 -1.16818,1.97992 -1.95568,3.71684 -1.75,3.85982 3.5746,2.48485 6.0611,3.52006 7.3068,3.04204 0.87577,-0.33606 2.825,0.49321 4.52845,1.92656 3.81113,3.20686 7.68948,4.03901 14.9156,3.20033 5.05051,-0.58617 5.75647,-0.93476 5.6942,-2.81165 -0.0829,-2.49898 5.71298,-5.82223 8.92892,-5.11966 2.94097,0.64249 4.2961,-0.67359 4.66865,-4.53411 0.27748,-2.875371 0.82755,-3.561259 3.38321,-4.218507 2.76162,-0.710217 3.01438,-1.105795 2.65788,-4.159544 l -0.39398,-3.374686 8.84212,-2.744926 c 12.74069,-3.955191 12.99486,-4.089309 13.67274,-7.214955 1.1757,-5.42106 2.00192,-5.903025 6.84114,-3.990685 4.21559,1.665898 4.37218,1.656734 6.01651,-0.352123 1.25157,-1.529028 2.35334,-1.895612 4.25944,-1.417211 1.41415,0.354929 2.8413,1.082374 3.17143,1.616544 0.33171,0.536714 1.78147,-0.133657 3.24055,-1.498435 1.45217,-1.358309 3.65281,-2.775533 4.89031,-3.149385 2.06011,-0.622366 2.25,-0.356375 2.25,3.151755 0,3.47528 0.34863,3.980816 3.75,5.437707 8.06427,3.454128 8.85026,3.287436 11.74599,-2.491071 0.77018,-1.536899 1.82229,-2.054981 3.71843,-1.831036 2.46245,0.290829 2.68938,-0.01871 3.29902,-4.5 0.99577,-7.319582 1.09632,-7.496169 7.01059,-12.312312 3.03933,-2.475 6.69625,-6.476495 8.1265,-8.892211 2.28261,-3.855362 2.53799,-5.170487 2.08934,-10.759655 -0.48697,-6.066659 -0.39853,-6.395701 1.87227,-6.965636 1.31086,-0.329005 3.08438,-0.329194 3.94116,-4.2e-4 1.09523,0.420282 1.86724,-0.28999 2.60006,-2.392153 C 315.98779,27.596277 316.77443,27 319.09783,27 321.9401,27 322,27.110728 322,32.365141 322,38.148382 324.64339,43 327.79437,43 330.27963,43 342.8957,39.118801 348,36.783955 c 9.63156,-4.405741 12.89147,-3.885595 15.75032,2.513098 2.52762,5.65734 0.51182,13.036433 -5.25032,19.219508 -4.70919,5.0532 -10.44793,7.000642 -18,6.108291 -3.03009,-0.358034 -8.48624,0.07731 -13.84871,1.104989 -7.79798,1.494425 -9.31196,2.145358 -12.75,5.481862 C 311.432,73.608065 310,75.908405 310,77.478652 c 0,5.362644 4.90686,14.333378 11.7136,21.414827 5.35026,5.566181 6.57879,8.815531 6.02409,15.933101 -0.42332,5.4317 -1.27468,7.97591 -4.57551,13.67342 -2.23048,3.85 -5.90096,10.375 -8.15662,14.5 -2.25566,4.125 -5.18353,9.29286 -6.5064,11.48413 l -2.4052,3.98413 4.70302,1.8943 c 2.58666,1.04186 6.05302,2.00646 7.70302,2.14354 4.43445,0.36842 11.5,3.50336 11.5,5.10248 0,0.76528 0.63,1.39142 1.4,1.39142 2.51701,0 1.61447,6.91959 -1.75,13.41688 -2.92254,5.64387 -3.17417,6.93485 -3.48479,17.8785 -0.21008,7.40178 0.0638,12.27563 0.73528,13.08472 0.76059,0.91645 0.7499,3.76951 -0.0369,9.86504 -1.12157,8.68842 -1.56441,9.57857 -8.37725,16.83875 -0.81746,0.87114 -1.48629,2.69498 -1.48629,4.053 0,3.30886 5.64521,10.86311 8.1179,10.86311 2.49588,0 3.31786,2.19273 2.1431,5.71701 -0.58444,1.75332 -1.63681,2.78299 -2.84433,2.78299 -1.09094,0 -2.509,1.18475 -3.29157,2.75 -1.6607,3.32163 -4.33293,3.53032 -8.97399,0.70082 -1.84188,-1.12293 -5.44188,-2.74318 -8,-3.60054 -2.55811,-0.85737 -5.36154,-2.18692 -6.22985,-2.95456 -2.05182,-1.81395 -2.92126,-1.76535 -2.92126,0.1633 0,0.88921 0.47766,1.2638 1.1118,0.87188 1.47371,-0.9108 2.85387,1.40435 2.87289,4.8191 0.008,1.5125 0.42956,2.75 0.93585,2.75 1.8829,0 2.25125,5.80818 0.53452,8.42824 -1.10854,1.69184 -1.44886,3.46034 -1.00568,5.2261 1.12135,4.46782 -2.33282,13.90848 -6.73025,18.39452 -4.17072,4.25478 -7.03749,4.98833 -8.60217,2.20114 -0.91542,-1.63065 -1.17456,-1.63945 -3.79969,-0.12897 -1.5495,0.89157 -4.61727,2.17226 -6.81727,2.84597 -9.05019,2.77147 -9.6688,3.23709 -9.01167,6.783 0.52456,2.83053 0.32983,3.25 -1.50876,3.25 -1.16108,0 -3.01023,-0.48123 -4.10923,-1.06939 -1.24148,-0.66442 -2.44735,-0.71912 -3.18426,-0.14444 -2.79298,2.17811 -6.12309,2.15191 -8.48474,-0.0668 l -2.35246,-2.21002 -2.94305,3.4953 c -1.61868,1.92242 -3.22367,4.77148 -3.56663,6.33125 -0.34297,1.55977 -1.23459,3.07041 -1.98139,3.35699 -0.7468,0.28657 -1.3591,1.03539 -1.36069,1.66405 -0.002,0.62865 -1.3426,2.04064 -2.98005,3.13775 -3.57497,2.39526 -5.36455,6.27261 -4.4947,9.73836 0.52943,2.10941 0.14699,2.78536 -2.25338,3.98283 -1.59007,0.79323 -5.73574,1.54489 -9.2126,1.67035 -3.58663,0.12943 -8.10292,1.03951 -10.43898,2.10357 -2.26458,1.0315 -6.00552,2.48906 -8.31322,3.23904 -2.30769,0.74998 -5.10055,2.5138 -6.20634,3.91959 -2.94365,3.74223 -6.30475,12.89103 -5.668,15.42805 0.42077,1.67647 0.0215,2.33712 -1.68944,2.79569 -3.99396,1.07045 -4.6402,0.68677 -5.25876,-3.12222 z m 4.52451,-1.55902 c 0.003,-1.20504 0.67839,-3.47992 1.5,-5.05529 0.82161,-1.57537 1.49384,-3.39921 1.49384,-4.05299 0,-0.65378 1.30744,-2.96654 2.90542,-5.13946 2.14898,-2.92216 4.12885,-4.31199 7.60447,-5.33822 2.58447,-0.7631 6.46482,-2.24059 8.62299,-3.28331 2.15818,-1.04272 6.04867,-1.92633 8.64554,-1.96359 6.54843,-0.094 11.22158,-2.40014 11.22158,-5.5378 0,-3.41735 1.53635,-5.94431 6.61493,-10.88012 2.41179,-2.344 4.39623,-4.86445 4.40986,-5.601 0.0136,-0.73656 1.59301,-3.4767 3.50972,-6.0892 3.60535,-4.91414 6.24788,-5.92205 8.47879,-3.23397 1.42685,1.71925 5.01122,1.53844 7.30919,-0.36871 1.2693,-1.05342 1.9999,-0.98219 4.11059,0.40079 2.56359,1.67973 2.56692,1.67793 2.56692,-1.38618 0,-3.29253 1.91551,-4.60547 10.5,-7.19696 2.2,-0.66414 5.5299,-2.13131 7.39979,-3.26038 l 3.39978,-2.05286 1.90593,2.35372 1.90592,2.35372 3.9896,-3.9896 c 2.19428,-2.19428 4.11659,-5.08759 4.27179,-6.42959 0.15521,-1.34199 0.54917,-3.11498 0.87546,-3.93998 1.32497,-3.35 1.44049,-4.57971 0.58625,-6.24097 -0.59436,-1.15587 -0.3809,-2.73555 0.63513,-4.70034 C 299.1555,274.79861 299.5008,271 298.11129,271 c -0.48879,0 -1.18096,-1.55783 -1.53815,-3.46184 -0.56964,-3.03644 -1.10558,-3.5444 -4.3613,-4.13365 -2.04151,-0.3695 -4.92699,-1.28666 -6.41218,-2.03816 C 284.31447,260.61486 282.18612,260 281.06998,260 c -1.36485,0 -2.70566,-1.32571 -4.09484,-4.04872 -1.13602,-2.2268 -2.68538,-4.28659 -3.443,-4.57732 -2.25541,-0.86548 -2.60443,-3.26517 -1.02478,-7.04581 1.46825,-3.51401 1.45842,-3.55072 -0.75994,-2.83766 -1.23608,0.39733 -5.39742,1.57829 -9.24742,2.62436 -6.96268,1.89181 -9.5,3.74577 -9.5,6.94142 0,3.00556 -4.14094,7.03064 -9.87651,9.60016 C 237.30845,263.26157 212.1025,271 209.432,271 c -0.83142,0 -3.19527,0.85891 -5.253,1.90868 -3.61164,1.84252 -3.82289,2.24979 -6.09466,11.75 -2.76253,11.55241 -4.89198,16.47193 -9.33531,21.56666 -8.48778,9.73208 -10.99363,15.10875 -12.67475,27.19559 -1.64752,11.84525 -1.32881,18.17333 1.3097,26.00389 1.31119,3.89135 2.67438,8.33108 3.02932,9.86608 0.73088,3.16086 2.58349,2.73222 2.59286,-0.59992 z M 175,358 c 0,-1.03508 -0.45,-2.16008 -1,-2.5 -1.27753,-0.78956 -1.28442,-14.19232 -0.0113,-21.96709 1.13327,-6.9207 0.76187,-7.55644 -5.27106,-9.02268 -4.35699,-1.05892 -4.60258,-1.55834 -3.26,-6.62922 0.60902,-2.30025 0.34955,-2.68824 -2.13211,-3.18809 -1.83975,-0.37056 -3.21287,-0.0674 -3.93577,0.86898 -1.67825,2.17383 -4.76691,1.73 -7.38976,-1.0619 -2.67369,-2.84601 -4,-3.17759 -4,-1 0,0.825 0.45,1.5 1,1.5 0.55,0 1,0.89143 1,1.98095 0,1.33655 -0.89457,2.19272 -2.75,2.63195 -1.5125,0.35805 -3.92213,1.82912 -5.35474,3.26905 -1.4326,1.43993 -4.41097,3.68365 -6.61859,4.98605 -3.7601,2.21828 -3.94755,2.54367 -2.96503,5.14668 l 1.04884,2.77868 2.81976,-2.08474 C 137.73111,332.56202 139,331.03351 139,330.31194 139,329.59037 139.53105,329 140.18011,329 141.80189,329 150,337.9401 150,339.70866 c 0,1.49059 5.13302,9.41699 7.90399,12.20533 0.8778,0.88331 2.81632,3.1712 4.30781,5.08422 2.15565,2.76488 2.96573,3.22426 3.95,2.23999 1.73912,-1.73912 5.50755,-1.54224 6.22415,0.32518 C 173.15487,361.56715 175,360.46364 175,358 z m -36.07606,-35 c 0.35466,0 1.44231,-1.35 2.41699,-3 0.97468,-1.65 2.36318,-3 3.08555,-3 0.77809,0 1.57438,-1.73223 1.95369,-4.25 0.35216,-2.3375 0.91069,-5.94418 1.24119,-8.01484 0.36709,-2.29988 1.55474,-4.51512 3.05215,-5.69299 l 2.45124,-1.92814 -3.81237,-0.64122 C 141.31657,295.12795 139,293.99344 139,291.42245 c 0,-2.06324 -0.48192,-2.4247 -3.25,-2.43763 -4.51065,-0.0211 -12.00105,-2.39072 -12.89966,-4.08091 -0.41052,-0.77215 -1.33229,-2.68713 -2.04837,-4.25551 -1.1981,-2.62409 -1.8136,-2.88539 -7.71487,-3.27526 -3.52709,-0.23302 -8.39431,-1.30014 -10.81604,-2.37139 -4.110018,-1.81805 -4.814843,-1.85064 -10.587106,-0.48952 -9.136593,2.15445 -19.880216,1.83448 -32.830363,-0.97778 C 52.609116,272.1784 46.4875,270.77592 45.25,270.41782 c -3.312485,-0.95854 -2.79045,0.90997 1.57515,5.63788 3.608405,3.90787 3.835736,4.53666 4.011959,11.09689 0.125228,4.66184 0.759745,7.82743 1.92485,9.60303 0.955922,1.45682 1.963041,5.31348 2.238041,8.57036 l 0.5,5.92159 7,1.76647 c 3.85,0.97156 7.675,1.43213 8.5,1.02349 0.825,-0.40864 4.875,-1.53333 9,-2.49931 4.125,-0.96598 8.175,-2.07723 9,-2.46945 0.825,-0.39221 3.328666,-0.52887 5.563703,-0.30367 3.399991,0.34257 4.243374,0.88544 5.163778,3.32387 0.766749,2.03136 1.573659,2.7327 2.663049,2.31466 1.0476,-0.402 1.95332,0.25693 2.74674,1.9983 0.65107,1.42894 1.77738,2.59807 2.50292,2.59807 0.72554,0 2.22157,1.76887 3.32452,3.93082 l 2.00535,3.93082 3.20704,-1.59988 c 2.88334,-1.43839 3.30527,-1.44415 4.18023,-0.0571 0.77833,1.23392 1.66713,1.35122 4.43901,0.58586 2.68985,-0.7427 3.79689,-0.6259 4.94445,0.52166 1.30482,1.30482 1.89351,1.19706 5.00846,-0.9168 C 136.69066,324.07794 138.56927,323 138.92394,323 z M 181.5,311.98353 c 1.65,-2.27752 4.19363,-5.50778 5.6525,-7.17835 1.45888,-1.67058 3.58472,-4.89766 4.72408,-7.1713 2.75936,-5.50636 6.65167,-21.50563 5.50972,-22.64758 -1.72233,-1.72233 -16.78943,-0.76108 -17.96828,1.14634 -0.29483,0.47705 -1.70065,0.86736 -3.12405,0.86736 -1.47745,0 -4.42084,1.50188 -6.85927,3.5 -2.34921,1.925 -4.87056,3.50231 -5.603,3.50512 -0.73243,0.003 -3.1317,1.11378 -5.3317,2.46879 -3.20483,1.97391 -5.35642,2.46988 -10.82332,2.49488 -5.94972,0.0272 -6.78061,0.25527 -6.48964,1.78121 0.23503,1.23262 1.95667,2.08513 5.82332,2.88357 9.84833,2.0336 11.27942,3.55676 6.1064,6.49928 -2.14061,1.21762 -2.97794,2.55233 -3.29271,5.24861 -0.35701,3.05799 0.0834,4.10574 2.85494,6.79203 3.01463,2.92189 3.41897,3.05119 5.04904,1.61465 1.03982,-0.91637 3.57376,-1.55206 6.13271,-1.53851 l 4.36074,0.0231 -0.63848,4.81312 -0.63848,4.81312 3.53878,0.66388 c 1.94634,0.36513 3.84035,1.15182 4.20893,1.74819 0.36858,0.59637 1.37611,-1.00164 2.23896,-3.55113 0.86284,-2.54949 2.91881,-6.49886 4.56881,-8.77638 z m -24,-27.50962 c 2.2,-1.35501 4.59927,-2.46597 5.3317,-2.46879 0.73244,-0.003 3.25379,-1.58012 5.603,-3.50512 2.43843,-1.99812 5.38182,-3.5 6.85927,-3.5 1.4234,0 2.82922,-0.39031 3.12405,-0.86736 0.62954,-1.0186 8.57204,-2.35784 13.57516,-2.28899 4.5226,0.0622 8.62105,-3.37228 6.5252,-5.46813 C 197.76184,265.61899 196.02024,265 194.64815,265 c -2.17168,0 -7.90657,-3.7282 -9.78633,-6.362 -0.35101,-0.49181 -2.30888,-1.04411 -4.35084,-1.22734 -2.04195,-0.18322 -4.34339,-0.85661 -5.11429,-1.4964 -0.82022,-0.68072 -2.69912,-0.90377 -4.52943,-0.53771 -2.24659,0.44932 -4.07715,0.0388 -6.49752,-1.45706 C 162.51638,252.77406 161,252.29601 161,252.85717 c 0,1.53997 -8.11749,2.43536 -11.25,1.24092 -2.52076,-0.96118 -2.75,-0.85129 -2.75,1.31825 0,3.06775 -3.00884,3.84336 -11.52489,2.97086 C 131.26125,257.95548 129,257.28097 129,256.45574 c 0,-0.77344 -2.04784,-1.54338 -5.25,-1.97387 -2.8875,-0.3882 -5.71509,-1.07968 -6.28354,-1.53664 -0.56844,-0.45695 -1.69344,-0.41346 -2.5,0.0967 -0.9963,0.63012 -1.0657,0.93239 -0.21646,0.9428 0.6875,0.008 1.25,0.81873 1.25,1.80069 0,1.55413 -1.06863,1.81015 -8.25,1.97658 -8.858078,0.20528 -13.147565,-1.07534 -17.75,-5.29926 -2.136059,-1.96038 -2.68771,-2.08827 -3.789427,-0.87854 C 85.27955,252.60646 85.248331,253 86.098255,253 c 0.838484,0 0.99115,1.58221 0.530691,5.5 -0.406534,3.45897 -0.272078,5.5 0.362318,5.5 C 87.546069,264 88,266.06075 88,268.57946 l 0,4.57945 3.25,-0.79859 c 4.777755,-1.17398 8.692444,-0.86345 13.75,1.09072 2.475,0.9563 7.05755,1.76833 10.18344,1.8045 l 5.68344,0.0658 1.9233,4.62799 c 2.40027,5.77569 5.27977,6.75782 20.20982,6.89313 9.50158,0.0861 10.88035,-0.1391 14.5,-2.36851 z M 203,271 c 2.15618,-1.1 4.60058,-2 5.432,-2 2.65338,0 27.86056,-7.73105 33.568,-10.29532 6.7985,-3.05446 9.01292,-5.42832 9.17876,-9.83965 0.18505,-4.92234 -1.61353,-7.55755 -6.75759,-9.90094 -2.48664,-1.13279 -6.18616,-3.50063 -8.22116,-5.26186 C 234.165,231.941 231.77964,230.05 230.8992,229.5 c -3.55071,-2.21808 -10.52111,-7.45686 -12.44515,-9.35347 -1.42557,-1.40524 -2.48686,-1.73787 -3.5,-1.09697 -0.79973,0.5059 -2.20917,0.92671 -3.13209,0.93513 -2.46414,0.0225 -3.27479,-8.71674 -1.81586,-19.57596 1.73038,-12.87974 3.79678,-31.8611 3.5049,-32.19502 -0.38086,-0.43571 -18.93891,1.91062 -19.511,2.46681 -0.275,0.26735 -0.56603,12.48611 -0.64672,27.15279 -0.12893,23.43286 -0.37476,27.27303 -2.02716,31.66669 -1.38366,3.67907 -2.46769,5.08442 -4.10328,5.31955 -1.90726,0.27418 -2.22284,0.93678 -2.22284,4.6671 0,2.39114 -0.85309,6.33773 -1.89576,8.77018 l -1.89577,4.42264 5.98126,5.16026 c 3.87273,3.34116 6.8928,5.16027 8.56703,5.16027 2.91152,0 6.24324,2.55497 6.24324,4.78769 0,0.81275 -0.96885,2.318 -2.15301,3.34501 -2.77952,2.41067 -1.74724,2.36722 3.15301,-0.1327 z m 116.10641,-6.05952 c 0.41211,-0.79226 1.00008,-2.24739 1.3066,-3.2336 0.44245,-1.42355 0.95199,-1.5819 2.47219,-0.76832 1.47299,0.78832 2.05333,0.66402 2.51484,-0.53866 0.98327,-2.56236 0.69826,-3.3999 -1.15696,-3.3999 -3.12024,0 -8.47984,-6.92089 -9.01135,-11.63643 -0.44008,-3.90444 -0.10611,-4.69162 4.05878,-9.56668 4.09342,-4.7914 4.63957,-6.04283 5.5712,-12.76557 0.70861,-5.11341 0.70955,-7.84299 0.003,-8.69433 -0.62579,-0.75402 -0.89938,-6.06629 -0.6973,-13.53895 0.30896,-11.4246 0.55727,-12.75928 3.49629,-18.79235 2.03808,-4.18367 2.78677,-6.72728 2.10428,-7.14908 -0.58268,-0.36012 -0.78297,-1.37518 -0.44509,-2.25569 0.33788,-0.8805 0.23094,-1.60092 -0.23765,-1.60092 -0.46859,0 -1.07864,-0.86671 -1.35565,-1.92601 -0.33194,-1.26934 -1.99122,-2.31148 -4.86663,-3.05658 -2.39963,-0.62182 -7.27257,-1.99592 -10.82875,-3.05356 l -6.46578,-1.92299 -3.18299,3.37457 c -5.68821,6.03057 -14.26328,5.70337 -27.51463,-1.04988 -6.83192,-3.48174 -7.38352,-3.59495 -14.41188,-2.95806 -7.95844,0.72117 -16.71511,4.55549 -21.58576,9.45183 -1.44475,1.45238 -4.61602,4.0857 -7.04727,5.85184 -3.38094,2.45603 -5.38444,5.16036 -8.51973,11.5 -9.78613,19.78779 -9.36174,28.13424 1.79775,35.3561 3.24284,2.0986 5.89607,4.17948 5.89607,4.62419 0,0.4447 0.59081,0.80855 1.31291,0.80855 0.7221,0 2.58534,1.32813 4.14054,2.95141 1.55519,1.62327 5.24682,4.13501 8.20362,5.58164 3.29594,1.61255 5.94375,3.72813 6.84337,5.4678 1.29123,2.49697 1.79939,2.73344 4.23346,1.96999 1.52136,-0.47718 5.6911,-1.75618 9.2661,-2.84224 3.575,-1.08607 7.22943,-2.26016 8.12096,-2.6091 2.33105,-0.91237 3.15339,2.07981 1.68648,6.13646 -1.14591,3.16898 -1.04601,3.5675 1.48191,5.91152 1.49086,1.3824 2.71065,2.97739 2.71065,3.54442 0,1.5705 2.12854,3.24633 6,4.72389 6.6583,2.54116 6.90887,2.53411 7.95743,-0.22382 1.1814,-3.10732 1.99529,-3.22351 5.15771,-0.73631 1.31167,1.03161 4.47786,2.58616 7.03597,3.45456 2.55812,0.8684 6.15812,2.49757 8,3.62038 3.63062,2.21321 4.79983,2.21122 5.9553,-0.0101 z m -175.47209,-8.70579 c 0.62387,-0.40408 1.30404,-1.62952 1.51148,-2.72321 0.47191,-2.48802 3.36636,-3.11052 6.54735,-1.40811 1.91045,1.02244 2.84486,1.04354 4.36856,0.0986 1.06606,-0.66111 2.78023,-1.724 3.80926,-2.36198 1.53037,-0.94879 2.4741,-0.7305 5.18393,1.19906 2.33052,1.65948 4.41441,2.2795 7.02729,2.09085 2.04288,-0.1475 4.01167,0.21292 4.37509,0.80094 0.97946,1.5848 2.54272,1.2954 2.54272,-0.47072 0,-0.84691 0.9,-3.30398 2,-5.46016 1.28755,-2.5238 2,-5.89377 2,-9.46016 0,-5.25698 0.12891,-5.53984 2.52475,-5.53984 1.82845,0 2.81958,-0.75842 3.59378,-2.75 1.61567,-4.15618 2.8165,-20.71147 2.16992,-29.91572 l -0.57362,-8.16571 -5.10741,-0.42548 c -2.80908,-0.23401 -8.15814,-1.23986 -11.8868,-2.23522 -6.51044,-1.73796 -6.83127,-1.7388 -8.0872,-0.0212 -1.06074,1.45063 -1.85813,1.60863 -4.22062,0.83625 -1.60204,-0.52376 -3.3538,-1.92824 -3.8928,-3.12105 C 156.35838,184.63119 150.32234,182 145.58675,182 c -3.99825,0 -4.84582,-1.52766 -3.95129,-7.12177 0.52549,-3.28623 0.23947,-4.38246 -1.6752,-6.42053 -1.26989,-1.35174 -2.66815,-2.4577 -3.10724,-2.4577 -0.43909,0 -3.17315,-1.08577 -6.07568,-2.41282 -2.90254,-1.32705 -7.33624,-2.61291 -9.85268,-2.85747 l -4.57534,-0.44466 -1.29298,5.82815 c -1.96496,8.85721 -2.11023,8.95452 -12.27456,8.22228 l -8.718226,-0.62806 -1.609936,-4.84706 c -1.491821,-4.49146 -1.769277,-4.76539 -3.781777,-3.73372 -3.401265,1.74359 -8.671759,7.10335 -8.67263,8.81953 -4.34e-4,0.85461 -1.350434,4.40673 -3,7.89362 C 75.349645,185.32667 74,189.61164 74,191.36194 c 0,3.8661 4.58012,9.80729 8.958701,11.62095 C 84.631415,203.67575 86,204.63805 86,205.12132 86,205.60459 86.614722,206 87.366048,206 c 0.751327,0 7.056298,5.36534 14.011052,11.92297 8.13022,7.66599 13.70807,12.15646 15.62248,12.57694 1.63762,0.35968 3.23366,1.06847 3.54677,1.57508 0.3131,0.50662 3.05084,2.09509 6.08386,3.52993 3.03302,1.43485 5.73907,3.19383 6.01345,3.90885 0.27438,0.71502 -0.22782,3.44042 -1.11598,6.05645 -1.78195,5.2486 -1.22889,10.91284 0.98266,10.06419 0.72624,-0.27869 2.59601,-0.12411 4.15505,0.34349 3.66018,1.09781 5.56223,1.1679 6.96893,0.25679 z m 71.13775,-44.23453 c -1.33137,-5.2452 0.776,-13.17009 6.81833,-25.64075 3.57461,-7.37757 5.31869,-9.78854 9.0424,-12.5 2.53746,-1.84767 5.79563,-4.54771 7.24038,-6.00009 5.19374,-5.22113 13.72889,-8.81706 22.53434,-9.4939 8.03704,-0.61778 8.17682,-0.5876 16.87791,3.64455 14.46074,7.0336 21.65594,5.95958 26.86385,-4.00997 1.2929,-2.475 3.51486,-6.3 4.93771,-8.5 1.42284,-2.2 3.84241,-6.59621 5.37682,-9.76937 1.53441,-3.17315 3.21214,-6.03036 3.72829,-6.34935 0.51614,-0.319 2.48407,-3.83628 4.37317,-7.81618 2.62507,-5.53042 3.43473,-8.53826 3.43473,-12.75985 0,-5.05922 -0.35619,-5.93491 -4.23608,-10.41446 C 319.43408,99.700855 317.29531,97.275 317.01111,97 c -0.65281,-0.631666 -5.17484,-7.783304 -6.7697,-10.706325 -3.71278,-6.804738 -2.21331,-13.813829 3.94964,-18.462049 4.24684,-3.203049 19.0451,-6.261893 25.79978,-5.332887 9.48239,1.304162 17.00637,-2.706527 20.99469,-11.191317 2.47453,-5.264339 2.25116,-10.283428 -0.59776,-13.43145 -2.2375,-2.472407 -4.27561,-2.367069 -10.61561,0.548662 C 343.28801,41.406657 331.33306,45 327.8961,45 c -4.13143,0 -7.15969,-4.133382 -7.68702,-10.49231 -0.51125,-6.164992 -2.60506,-7.534249 -3.72485,-2.435881 -0.64016,2.914616 -0.86519,3.039624 -4.3974,2.442861 l -3.72272,-0.628949 0.4358,6.024752 c 0.64573,8.927195 -2.37558,13.93468 -14.62258,24.235313 -1.34848,1.134173 -2.177,3.543358 -2.66523,7.75 L 290.80363,78 287.40181,78 C 285.24345,78 284,78.484571 284,79.325686 c 0,0.729127 -1.10863,2.367192 -2.46363,3.640144 -2.31862,2.178233 -2.73215,2.239278 -7.02576,1.037141 -2.50917,-0.702525 -4.8021,-1.66559 -5.09539,-2.140145 C 269.12193,81.388272 268.00852,81 266.94098,81 265.38938,81 265,80.29786 265,77.5 c 0,-4.196946 -0.54589,-4.30925 -4.15217,-0.854216 -2.6846,2.572016 -2.85339,2.60133 -6.05369,1.051378 -3.21045,-1.554867 -3.3239,-1.533684 -4.57505,0.854216 -1.4708,2.807117 -3.01617,3.06934 -5.77796,0.980425 -3.17822,-2.40388 -5.18628,-1.834027 -6.39003,1.813377 -1.2399,3.756907 -2.42785,4.459229 -13.0511,7.715817 -9.03877,2.770862 -9.84593,3.354808 -8.22496,5.950394 1.93132,3.092533 1.50272,3.765886 -2.86693,4.504134 -4.01305,0.678005 -4.07972,0.756205 -3.46014,4.058845 0.56084,2.9895 0.35403,3.43722 -1.84232,3.98847 C 205.59654,108.31808 204,112.35429 204,119.2064 c 0,7.1337 -1.88711,13.69691 -5.33657,18.56015 -3.37236,4.75453 -4.47529,10.1873 -4.59043,22.61126 l -0.073,7.87781 3.75,-0.57092 c 2.0625,-0.314 7.06341,-0.88467 11.11314,-1.26816 l 7.36314,-0.69726 -0.64376,4.89036 c -0.35407,2.6897 -1.09221,9.16536 -1.6403,14.39036 -0.54809,5.225 -1.42555,12.425 -1.94992,16 -0.52436,3.575 -0.68669,8.85133 -0.36072,11.72518 0.52491,4.62785 0.79688,5.11588 2.37907,4.26912 1.5453,-0.82702 1.64806,-1.50105 0.76142,-4.99414 z M 191.03287,185.25 c 0.0181,-2.6125 0.44804,-13.25328 0.95548,-23.64618 l 0.92261,-18.89619 3.51509,-5.2941 c 1.93329,-2.91175 3.9553,-7.23347 4.49334,-9.60381 C 202.23265,122.02414 202.93351,109 201.93158,109 c -0.44076,0 -1.96605,0.44281 -3.38954,0.98402 -2.09769,0.79754 -2.47294,1.44313 -1.98011,3.40671 0.5922,2.35952 0.41342,2.44094 -6.85556,3.1221 -8.95243,0.83891 -12.79972,0.12094 -16.63215,-3.10383 -1.58283,-1.33187 -3.53203,-2.17055 -4.33154,-1.86375 C 166.99561,112.21566 160,108.28777 160,106.63642 c 0,-0.64132 0.87356,-2.79591 1.94124,-4.78798 l 1.94125,-3.621942 -3.01192,-0.602383 c -1.82763,-0.365528 -4.14419,-0.01686 -5.89158,0.886751 C 153.39517,99.32989 150.98262,100 149.61775,100 146.05822,100 143,104.70527 143,110.18186 c 0,2.49355 -0.72902,5.41395 -1.69617,6.79475 C 139.27723,119.86998 131.13946,128 130.26992,128 c -0.33684,0 -1.41034,-0.72209 -2.38555,-1.60464 -1.4236,-1.28834 -2.96937,-1.46581 -7.84188,-0.90029 -6.53434,0.75839 -9.04249,2.77414 -9.04249,7.26727 0,1.27454 -0.84508,3.98691 -1.87796,6.0275 -1.03288,2.04059 -2.19463,5.17719 -2.58167,6.97023 -0.86752,4.01901 -3.40626,9.23993 -4.49303,9.23993 -0.4434,0 -2.688898,1.82712 -4.990003,4.06027 l -4.183826,4.06026 1.393772,4.18974 1.393772,4.18973 7.398735,0.66733 c 4.0693,0.36702 7.66866,0.5005 7.99858,0.2966 0.32991,-0.2039 1.1758,-2.9792 1.87975,-6.16733 0.70394,-3.18813 1.44014,-6.35498 1.63599,-7.03744 0.58461,-2.03715 11.22359,-0.67119 17.17099,2.20462 2.8848,1.39492 5.63594,2.53622 6.11363,2.53622 0.4777,0 2.08921,1.22067 3.58113,2.71259 2.35516,2.35516 2.66961,3.37429 2.38637,7.73431 l -0.32623,5.02171 4.62832,0.66539 c 5.67627,0.81605 8.71903,2.32901 11.50996,5.72313 1.95156,2.37334 2.35629,2.48374 4.63485,1.26429 2.70847,-1.44953 8.35535,-0.8994 14.67742,1.4299 1.9522,0.71927 5.46195,1.33946 7.79945,1.37822 L 191,190 l 0.0329,-4.75 z m -118.478561,1.60388 c 1.317748,-2.09043 1.481732,-2.69589 2.996718,-6.32176 1.906832,-4.56369 1.870006,-4.68108 -1.051027,-3.35017 -2.382135,1.08538 -3.756384,3.92871 -2.170407,5.51468 l -0.29214,2.11511 -2.342365,4.39281 c -1.81274,3.39957 -10.772346,6.43696 -15.695088,7.25637 -1.925,0.32042 -4.5064,1.36029 -5.736445,2.31083 -2.848401,2.20115 -4.313286,9.62519 -3.547402,17.97825 0.570783,6.22521 0.562641,6.25 -2.052496,6.25 -4.265189,0 -4.539634,3.40029 -1.721871,21.33343 1.022917,6.51017 0.968439,6.91868 -1.151605,8.63539 -1.918404,1.55343 -2.037936,2.02773 -0.866685,3.439 0.747246,0.90038 1.485795,3.23972 1.641218,5.19854 0.430028,5.41972 1.613795,5.9865 22.435286,10.74186 3.575,0.81648 10.2125,1.52215 14.75,1.56815 L 86,274 l 0,-3.94098 c 0,-2.16754 -0.500325,-4.2502 -1.111833,-4.62814 -0.720508,-0.4453 -0.884368,-2.40187 -0.465557,-5.55901 C 84.834621,256.76597 84.693916,255 84.034443,255 c -1.386917,0 -1.304674,-2.0194 0.215557,-5.29283 1.569212,-3.37891 3.142306,-3.40577 6.438128,-0.10995 3.472389,3.47239 8.835098,6.40278 11.717292,6.40278 4.94547,0 8.86731,-1.32692 9.34735,-3.16259 0.58705,-2.24487 4.36328,-3.36836 6.90409,-2.05407 1.01373,0.52438 3.42405,1.23804 5.35628,1.58591 3.50343,0.63076 3.51632,0.61937 4.66266,-4.11837 0.63224,-2.61298 1.44396,-5.49144 1.80383,-6.39658 0.50362,-1.26671 -0.61442,-2.2459 -4.85485,-4.25194 -3.03003,-1.43344 -5.76533,-3.02075 -6.07843,-3.52737 -0.31311,-0.50661 -1.90915,-1.2154 -3.54677,-1.57508 -1.91441,-0.42048 -7.49226,-4.91095 -15.62248,-12.57694 C 93.422346,213.36534 87.364935,208 86.91618,208 86.467426,208 84.042655,206.61134 81.527799,204.91408 75.527965,200.86484 72.084521,195.6092 72,190.72241 l -0.03745,-2.1654"
     id="path3815"
     inkscape:connector-curvature="0"
     sodipodi:nodetypes="ccsssssssssssssssscsssssscsssssssssssssssssssssssssssssssssssssssssssscsssssssssssssssssssssssssssssssssscssssssssssssssssssscsssssssssssscssccssssssssscccsssssssscssssssscccsssssssssssssssssssssssscssssssssssssssscssssssssssssssscsssssssssssssscsssssssssscscsscsssssssscssssssssscccssssccsscsssssssssssssssccssscsssscssscssccsssssssssssssssssscssssscsssssssssssssssscsssssssssssssssssssssssccssscsssssssssscssssssssssscsscsssssssssscssssssssssssssscsssssssssssssscssscsssssssssssssssssssscsscsssssscscsssssssssscssssssssssssscccscsssssscsssssccccssccssssssssssscssssssssssssscsssssc" />
</svg>
