<?xml version="1.0" encoding="UTF-8" standalone="no"?>
<!-- Created with Inkscape (http://www.inkscape.org/) -->

<svg
   xmlns:dc="http://purl.org/dc/elements/1.1/"
   xmlns:cc="http://creativecommons.org/ns#"
   xmlns:rdf="http://www.w3.org/1999/02/22-rdf-syntax-ns#"
   xmlns:svg="http://www.w3.org/2000/svg"
   xmlns="http://www.w3.org/2000/svg"
   xmlns:sodipodi="http://sodipodi.sourceforge.net/DTD/sodipodi-0.dtd"
   xmlns:inkscape="http://www.inkscape.org/namespaces/inkscape"
   id="svg2"
   version="1.1"
   inkscape:version="0.48.4 r9939"
   width="500"
   height="400"
   sodipodi:docname="sherlock-logo.svg">
  <sodipodi:namedview
     pagecolor="#ffffff"
     bordercolor="#666666"
     borderopacity="1"
     objecttolerance="10"
     gridtolerance="10"
     guidetolerance="10"
     inkscape:pageopacity="0"
     inkscape:pageshadow="2"
     inkscape:window-width="1858"
     inkscape:window-height="999"
     id="namedview4"
     showgrid="false"
     inkscape:zoom="0.53703704"
     inkscape:cx="-242.07915"
     inkscape:cy="365.14958"
     inkscape:window-x="-8"
     inkscape:window-y="46"
     inkscape:window-maximized="1"
     inkscape:current-layer="svg2" />
  <metadata
     id="metadata8">
    <rdf:RDF>
      <cc:Work
         rdf:about="">
        <dc:format>image/svg+xml</dc:format>
        <dc:type
           rdf:resource="http://purl.org/dc/dcmitype/StillImage" />
        <dc:title />
      </cc:Work>
    </rdf:RDF>
  </metadata>
  <defs
     id="defs6" />
  <path
     style="fill:#4abc9c;fill-opacity:1"
     d="m 132.64567,366.0401 c -1.24637,-0.19983 -2.47769,-0.62662 -3.57317,-1.25368 -0.6758,-0.38685 -1.2715,-0.92223 -1.78326,-1.50915 -0.78244,-0.89737 -1.34431,-1.97015 -1.91464,-3.01524 -0.56088,-1.02763 -1.09187,-2.08117 -1.47505,-3.1874 -0.4141,-1.19549 -0.59294,-2.45994 -0.87815,-3.69256 -0.22626,-0.97783 -0.60846,-1.93529 -0.66091,-2.93759 -0.0883,-1.68821 0.31724,-3.36878 0.5907,-5.03703 0.22654,-1.38203 0.40479,-2.78921 0.86848,-4.11069 0.45833,-1.30623 1.32936,-2.43382 1.86859,-3.70879 0.61872,-1.46281 1.04584,-2.99945 1.56003,-4.50218 1.4728,-4.30424 2.81351,-8.65447 4.36845,-12.92972 0.63367,-1.74233 1.67747,-3.35994 2.02089,-5.18185 0.6711,-3.56044 -0.33433,-7.2625 0.009,-10.86942 0.39204,-4.12854 0.67023,-8.42139 2.33268,-12.22071 0.78165,-1.7863 2.25884,-3.18133 3.47599,-4.70463 0.47998,-0.60075 1.02924,-1.14402 1.50702,-1.74652 2.62928,-3.31559 4.86581,-6.92878 7.46838,-10.26528 0.32267,-0.41368 0.67322,-0.80485 1.00904,-1.20792 1.24166,-1.49017 2.54542,-2.93112 3.7192,-4.47526 1.51719,-1.99579 2.93824,-4.06625 4.28748,-6.17922 1.38934,-2.17583 2.58058,-4.47235 3.91495,-6.68233 1.27337,-2.10912 2.65777,-4.15074 3.90359,-6.27626 2.28585,-3.89979 4.87418,-7.67635 6.54813,-11.87533 1.04866,-2.63054 2.29494,-5.3937 2.141,-8.22138 -0.26065,-4.78914 -3.05357,-9.11832 -5.1162,-13.44838 -2.20576,-4.63065 -5.20562,-8.84021 -7.72003,-13.31081 -1.50702,-2.67952 -2.38984,-5.7842 -4.41434,-8.09768 -1.27071,-1.45208 -2.75494,-3.18593 -4.67021,-3.42028 -5.35321,-0.65499 -10.09131,3.83823 -14.97301,6.13054 -1.44767,0.67977 -2.79292,1.56336 -4.23472,2.25547 -0.85909,0.41242 -1.7387,0.78289 -2.62692,1.12833 -5.5743,2.16798 -10.97211,6.33029 -16.939,5.91857 -2.65738,-0.18336 -6.4048,-1.07846 -7.11032,-3.64702 -1.12994,-4.11368 4.44725,-7.28373 6.80612,-10.83827 4.46199,-6.72371 10.90878,-12.32903 13.88911,-19.82804 5.96011,-14.99646 5.0365,-31.88551 7.02082,-47.90046 1.12547,-9.08346 0.93184,-18.35215 2.76904,-27.318782 1.86312,-9.092767 4.21796,-18.245762 8.31346,-26.57503 3.9281,-7.988855 9.17303,-15.435797 15.31667,-21.878406 3.59994,-3.775117 8.43772,-6.156694 12.37936,-9.573531 1.3945,-1.208895 3.76547,-2.021128 3.97437,-3.854864 0.14008,-1.229339 -2.23457,-1.899804 -2.01486,-3.11743 1.01545,-5.627142 8.6568,-7.663821 13.75969,-10.243729 3.2631,-1.649733 6.91105,-2.460385 10.49142,-3.202196 2.10326,-0.435764 4.28553,-0.362547 6.40304,-0.722471 10.40459,-1.768541 20.71036,-4.179637 30.86784,-7.04467 5.15332,-1.453548 9.97582,-4.0551133 15.21989,-5.1361003 4.96297,-1.023021 10.14964,-2.041329 15.15184,-1.231695 4.60836,0.745898 9.49867,2.270322 12.88839,5.4801913 1.17558,1.113191 2.24224,2.74371 2.14124,4.359571 -0.12607,2.018388 -1.94362,3.599512 -3.33162,5.070317 -0.60932,0.645629 -2.0945,0.702176 -2.13732,1.588864 -0.17915,3.709134 5.25158,5.297896 8.25841,7.477125 1.3267,0.961565 2.84021,1.634865 4.2694,2.436159 2.33918,1.311444 4.71845,2.551024 7.0469,3.88129 2.76544,1.579907 5.58772,3.077615 8.22138,4.868639 3.14111,2.136149 6.02838,4.624228 9.00437,6.985032 3.27774,2.600196 6.76557,4.972659 9.74797,7.906932 5.51208,5.42312 10.68818,11.294234 14.90473,17.776048 2.75338,4.232648 3.92348,9.363126 6.66684,13.602304 2.41967,3.738974 5.21376,7.312345 8.53559,10.278846 7.0054,6.256086 15.50771,10.621146 23.56694,15.444356 2.67727,1.60228 5.72631,2.60161 8.22138,4.47504 3.05177,2.29139 9.03482,4.4395 8.06133,8.12951 -1.7838,6.76158 -13.29835,4.53088 -20.19766,5.6712 -4.444,0.73451 -9.03091,0.11497 -13.49339,0.72748 -3.62767,0.49794 -7.44388,0.75617 -10.72287,2.38602 -1.92091,0.9548 -4.37965,2.08431 -4.90692,4.16361 -1.01029,3.98443 2.52921,7.86869 4.46515,11.49476 2.31945,4.34434 5.65083,8.06724 8.46708,12.10726 1.98191,2.84317 4.00014,5.66167 5.93287,8.53848 0.56155,0.83588 1.07386,1.70453 1.64521,2.53374 1.26445,1.83503 2.80537,3.48268 3.94305,5.39888 1.36428,2.29791 3.19835,4.58778 3.42041,7.25094 0.11713,1.40499 -0.22378,3.00504 -1.14614,4.07137 -3.35111,3.8743 -9.18007,4.62789 -14.03836,6.25197 -1.8455,0.61694 -4.58972,-0.29619 -5.68896,1.30952 -2.37355,3.46722 -0.68323,9.09184 1.80863,12.47501 4.1063,5.57504 12.68371,5.60226 18.74827,8.94345 4.86275,2.67906 9.33533,6.01552 14.09379,8.87579 4.79166,2.88025 10.67503,4.31156 14.55161,8.33995 5.64159,5.86255 7.35414,14.52051 11.3152,21.62735 1.63042,2.92524 1.94776,9.71186 5.12161,8.64328 1.12617,-0.37917 -0.43213,-2.35351 -0.40763,-3.54157 0.0368,-1.77823 -0.0102,-3.7024 0.82833,-5.27111 1.63308,-3.0564 4.71664,-5.18985 7.64048,-7.04983 2.1197,-1.34841 4.58588,-2.07918 6.97666,-2.85088 3.06587,-0.98963 6.23658,-1.63407 9.39586,-2.26481 3.1264,-0.62417 6.25765,-1.48459 9.44566,-1.50088 2.06788,-0.0106 4.36133,-0.14974 6.13652,0.91086 2.74672,1.64099 4.45575,4.76261 5.74056,7.69287 0.53611,1.22276 0.58137,2.61089 0.7382,3.93678 0.0767,0.64879 0.11745,1.30445 0.0982,1.95748 -0.0803,2.71744 -0.60596,5.40344 -0.88862,8.10732 -0.13467,1.28776 -0.23403,2.57925 -0.3846,3.86524 -0.45194,3.86036 -0.90506,7.7241 -1.55674,11.5558 -0.65724,3.86406 -0.93418,7.87042 -2.37105,11.51711 -0.6606,1.67668 -1.79633,3.12913 -2.81492,4.61576 -1.03667,1.51301 -2.06286,3.05765 -3.34657,4.36761 -1.30274,1.32936 -2.74954,2.55652 -4.36265,3.48511 -4.26651,2.45607 -8.86297,4.90809 -13.76612,5.34922 -4.34715,0.3911 -8.92849,-0.58301 -12.85549,-2.48795 -3.10213,-1.5048 -5.38242,-4.33043 -7.82989,-6.75892 -0.77273,-0.76675 -1.49723,-1.58665 -2.15322,-2.45543 -2.95531,-3.91424 -5.39127,-8.19606 -7.98335,-12.35978 -1.32685,-2.1314 -2.52506,-4.34183 -3.87344,-6.45966 -0.47215,-0.74155 -0.94859,-1.48222 -1.47555,-2.18586 -2.47643,-3.30678 -5.22347,-6.40291 -7.90654,-9.54437 -2.34051,-2.74045 -5.06217,-5.17336 -7.14445,-8.11483 -0.70164,-0.99113 -1.20502,-2.109 -1.77887,-3.1792 -0.98359,-1.83426 -1.8091,-3.75335 -2.85157,-5.55482 -2.77405,-4.7939 -5.37005,-9.79218 -9.03483,-13.94501 -1.25207,-1.41882 -2.76888,-2.60577 -4.34347,-3.65534 -2.37848,-1.58545 -4.76863,-3.74422 -7.62098,-3.93184 -1.52683,-0.10042 -3.28292,0.42722 -4.32006,1.55224 -1.91222,2.07418 -2.136,5.35052 -2.20615,8.17077 -0.0125,0.50822 0.28078,0.98381 0.32384,1.49037 0.23357,2.75018 0.47449,5.6438 -0.36832,8.27205 -2.63914,8.22966 -6.15538,18.39907 -14.12519,21.74185 -5.10344,2.14052 -10.831,-2.28435 -16.27034,-3.30431 -4.31161,-0.80851 -8.58351,-2.16434 -12.96982,-2.23124 -3.54866,-0.0541 -7.94529,-0.93357 -10.54333,1.48433 -3.22497,3.00136 -2.78251,8.51606 -2.77655,12.92155 0,0.76726 0.48678,1.48185 0.4896,2.2491 0.008,1.96442 -0.89112,3.82929 -1.21152,5.76741 -0.24531,1.48393 -1.04396,3.06119 -0.54308,4.4794 0.55639,1.57552 2.39641,2.32909 3.59462,3.49363 1.19821,1.16455 2.95923,1.94829 3.5947,3.49362 0.73538,1.78833 -0.1851,3.86756 -0.11228,5.79983 0.0922,2.44464 0.315,4.88938 0.69389,7.30623 0.20318,1.29622 0.58692,2.55797 0.84492,3.8444 0.47864,2.38651 0.81673,4.79998 1.30399,7.18475 0.20091,0.98315 0.35187,1.98292 0.66742,2.93548 0.19144,0.57784 0.45805,1.12991 0.73836,1.67027 0.32768,0.63171 0.66272,1.26817 1.09915,1.83027 8.32881,10.72657 18.07694,20.4413 28.64196,28.97409 1.35935,1.09787 4.8929,1.13604 4.41997,2.81815 -18.44799,65.61937 -137.14725,14.77458 -204.45091,3.98348 z"
     id="path3033"
     inkscape:connector-curvature="0"
     sodipodi:nodetypes="caaaaaaaaaaaaaaaaaaaaaaaaaaaaaaaaaaaaaaaaaaaaaaaaaaaaaaaaaaaaaaaaaaaaaaaaaaaaaaaaaaaaaaaaaaaaaaaaaaaaaaaaaaaaaaaaaaaaaaaaaaaaaaaaaaaaaaaaaac" />
</svg>
